<svg width="20" height="20" version="1.1" xmlns="http://www.w3.org/2000/svg"><g fill="#00bd00" stroke-linecap="round" stroke-linejoin="round"><path d="m6.875 5.054c-0.44382 0.05603-0.92286 0.26365-1.2852 0.67578-0.36695 0.41743-0.57108 0.9942-0.54492 1.6035 0.02815 0.65561 0.35978 1.2293 0.73242 1.6348 0.41455 0.45108 0.98095 0.6661 1.4727 0.74805a0.50005 0.50005 0 0 0 0.08203 0.0059h11.465a0.5 0.5 0 0 0 0.5-0.5 0.5 0.5 0 0 0-0.5-0.5h-11.398c-0.29761-0.05361-0.70305-0.23196-0.88477-0.42969-0.22685-0.24684-0.45619-0.70938-0.46875-1.002-0.01455-0.33887 0.12626-0.70852 0.29492-0.90039 0.17332-0.19717 0.44915-0.31711 0.66016-0.34375 0.1974-0.02492 0.46714 0.03952 0.61914 0.12305 0.14626 0.08038 0.19735 0.15286 0.28906 0.32422-0.0103-0.01925 0.03601 0.1224 0.05078 0.23633s0.01758 0.20508 0.01758 0.20508a0.5 0.5 0 0 0 0.51758 0.48242 0.5 0.5 0 0 0 0.48242-0.51758s-0.0042-0.1354-0.02539-0.29883-0.04035-0.35061-0.16211-0.57812c-0.13121-0.24517-0.34188-0.53946-0.68945-0.73047-0.34183-0.18785-0.7672-0.29602-1.2246-0.23828z" color="#000000" style="-inkscape-stroke:none"/><path d="m2.223 6.322c-0.28161-0.01677-0.5742 0.05187-0.83789 0.20117-0.2633 0.14908-0.4991 0.38603-0.65625 0.69141-0.16972 0.32988-0.24111 0.71424-0.17383 1.1055 0.06352 0.36939 0.23935 0.69667 0.47461 0.96094 0.14096 0.15834 0.30932 0.28857 0.49609 0.4043s0.34557 0.23633 0.66797 0.23633h2.5039a0.5 0.5 0 0 0 0.5-0.5 0.5 0.5 0 0 0-0.5-0.5h-2.5039c0.11858 0-0.02811-0.01622-0.14062-0.08594-0.11252-0.06972-0.23806-0.17462-0.27734-0.21875-0.12524-0.14068-0.20652-0.30483-0.23438-0.4668-0.0241-0.14013 0.01196-0.34796 0.07813-0.47656 0.07879-0.15311 0.1473-0.21868 0.25781-0.28125 0.11012-0.06235 0.20027-0.07744 0.28711-0.07227 0.11377 0.0068 0.23293 0.04883 0.26562 0.07227 0.06542 0.0469 0.1306 0.13338 0.1582 0.19336-0.01651-0.03588 0.01207 0.04691 0.01953 0.11133 0.0075 0.06442 0.0078 0.11328 0.0078 0.11328a0.5 0.5 0 0 0 0.51367 0.48438 0.5 0.5 0 0 0 0.48633-0.51367s-0.0029-0.08926-0.01563-0.19922c-0.01271-0.10995-0.02206-0.23711-0.1035-0.41406-0.10225-0.22216-0.25988-0.42693-0.48438-0.58789-0.25722-0.18442-0.53438-0.24265-0.78906-0.25781z" color="#000000" style="-inkscape-stroke:none"/><path d="m6.035 10.107a0.50005 0.50005 0 0 0-0.06641 0.0039c-0.39532 0.05213-0.80565 0.12289-1.1816 0.31445-0.3275 0.16686-0.66243 0.40739-0.9668 0.75195-0.30622 0.34666-0.66363 0.88283-0.74805 1.584-0.07768 0.64518-0.01788 1.478 0.54688 2.127 0.5313 0.61059 1.3163 0.98831 2.1191 0.94336 0.43691-0.02446 0.83166-0.20305 1.1621-0.44336s0.60428-0.54117 0.74414-0.91992c0.2371-0.64207 0.19753-1.3314-0.16602-1.8535-0.32203-0.4625-0.83063-0.7709-1.4062-0.79492-0.24769-0.01034-0.52958 0.01644-0.81445 0.13086-0.28488 0.11442-0.57836 0.33514-0.74609 0.67383a0.5 0.5 0 0 0 0.22656 0.66992 0.5 0.5 0 0 0 0.66992-0.22656c0.04639-0.09368 0.10868-0.14446 0.2207-0.18945 0.11202-0.045 0.26934-0.06414 0.40234-0.05859 0.18576 0.0078 0.49728 0.179 0.62695 0.36524 0.08817 0.12662 0.16989 0.60967 0.04883 0.9375-0.03921 0.1062-0.19076 0.30884-0.39453 0.45703s-0.45271 0.24393-0.63086 0.25391c-0.42728 0.02392-0.9735-0.21871-1.3066-0.60156-0.29977-0.34447-0.36778-0.87423-0.31055-1.3496 0.0505-0.4194 0.28731-0.79776 0.50391-1.043 0.21845-0.2473 0.44266-0.40666 0.67188-0.52344 0.17744-0.0904 0.49716-0.16215 0.84375-0.20898h11.789a0.5 0.5 0 0 0 0.5-0.5 0.5 0.5 0 0 0-0.5-0.5z" color="#000000" style="-inkscape-stroke:none"/><path d="m9.246 11.556c-0.50662 0-0.89358 0.31136-1.0879 0.64062-0.23041 0.39044-0.24122 0.8562-0.01758 1.2793 0.13778 0.26062 0.34259 0.40584 0.54102 0.51172s0.38503 0.17318 0.61719 0.17774a0.5 0.5 0 0 0 0.50977-0.49024 0.5 0.5 0 0 0-0.49024-0.50976c0.02215 4.34e-4 -0.08688-0.01637-0.16602-0.05859-0.07913-0.04222-0.13314-0.10762-0.12891-0.09961-0.04341-0.08212-0.02378-0.26906-0.0039-0.30273 0.05598-0.09486 0.11551-0.14844 0.22656-0.14844h7.5117a0.5 0.5 0 0 0 0.5-0.5 0.5 0.5 0 0 0-0.5-0.5z" color="#000000" style="-inkscape-stroke:none"/></g></svg>
