<svg width="20" height="20" version="1.1" xmlns="http://www.w3.org/2000/svg"><g stroke-linecap="round" stroke-linejoin="round"><path d="m13.934 15.068c0 2.209-1.7908 3.9998-3.9998 3.9998s-3.9998-1.7908-3.9998-3.9998c0-1.1045 0.44769-2.1045 1.1715-2.8283 0.36191-0.36191 0.79286-0.65479 1.2714-0.85719l0.0035-9.185c1.68e-4 -0.44315 0.43571-1.3295 1.5534-1.3295 1.1055 0 1.5483 0.8863 1.5487 1.3295l0.0082 9.185c0.47853 0.2024 0.90948 0.49528 1.2714 0.85719 0.72382 0.72382 1.1715 1.7238 1.1715 2.8283z" color="#000000" fill="#ff7d7d" stroke-width="1.0284" style="-inkscape-stroke:none"/><path d="m9.934 0.354c-0.69476 0-1.2428 0.29439-1.5781 0.66797s-0.48813 0.78589-0.48828 1.1758l-0.0039 8.9219c-0.40274 0.21249-0.80224 0.437-1.1211 0.75586-0.81629 0.81629-1.3223 1.9479-1.3223 3.1914 0 2.4869 2.0268 4.5156 4.5137 4.5156s4.5156-2.0287 4.5156-4.5156c1e-6 -1.2435-0.50597-2.3751-1.3223-3.1914-0.31886-0.31885-0.71836-0.54337-1.1211-0.75586l-0.0078-8.9238c-3.52e-4 -0.39251-0.15726-0.80117-0.49219-1.1738s-0.88211-0.66797-1.5723-0.66797zm0 1.0273c0.41534 0 0.64372 0.14684 0.80664 0.32812 0.16293 0.18128 0.22847 0.43764 0.22852 0.48828l0.0078 9.1855a0.51423 0.51423 0 0 0 0.31445 0.47266c0.41663 0.17622 0.79174 0.43042 1.1074 0.74609 0.63136 0.63136 1.0215 1.4993 1.0215 2.4648 0 1.9312-1.5552 3.4863-3.4863 3.4863s-3.4844-1.5552-3.4844-3.4863c0-0.96558 0.38818-1.8335 1.0195-2.4648 0.31568-0.31568 0.69274-0.56987 1.1094-0.74609a0.51423 0.51423 0 0 0 0.31446-0.47266l2e-3 -9.1855c2e-5 -0.05326 0.06466-0.30792 0.22656-0.48828s0.38956-0.32812 0.8125-0.32812z" color="#000000" fill="#f00" style="-inkscape-stroke:none"/><path d="m4.936 1.661a0.25 0.25 0 0 0-0.25 0.25 0.25 0.25 0 0 0 0.25 0.25h2a0.25 0.25 0 0 0 0.25-0.25 0.25 0.25 0 0 0-0.25-0.25z" color="#000000" style="-inkscape-stroke:none"/><path d="m4.936 3.661a0.25 0.25 0 0 0-0.25 0.25 0.25 0.25 0 0 0 0.25 0.25h2a0.25 0.25 0 0 0 0.25-0.25 0.25 0.25 0 0 0-0.25-0.25z" color="#000000" style="-inkscape-stroke:none"/><path d="m4.936 5.661a0.25 0.25 0 0 0-0.25 0.25 0.25 0.25 0 0 0 0.25 0.25h2a0.25 0.25 0 0 0 0.25-0.25 0.25 0.25 0 0 0-0.25-0.25z" color="#000000" style="-inkscape-stroke:none"/><path d="m4.936 7.661a0.25 0.25 0 0 0-0.25 0.25 0.25 0.25 0 0 0 0.25 0.25h2a0.25 0.25 0 0 0 0.25-0.25 0.25 0.25 0 0 0-0.25-0.25z" color="#000000" style="-inkscape-stroke:none"/><path d="m4.936 9.661a0.25 0.25 0 0 0-0.25 0.25 0.25 0.25 0 0 0 0.25 0.25h2a0.25 0.25 0 0 0 0.25-0.25 0.25 0.25 0 0 0-0.25-0.25z" color="#000000" style="-inkscape-stroke:none"/><path d="m12.936 1.661a0.25 0.25 0 0 0-0.25 0.25 0.25 0.25 0 0 0 0.25 0.25h2a0.25 0.25 0 0 0 0.25-0.25 0.25 0.25 0 0 0-0.25-0.25z" color="#000000" style="-inkscape-stroke:none"/><path d="m12.936 3.661a0.25 0.25 0 0 0-0.25 0.25 0.25 0.25 0 0 0 0.25 0.25h2a0.25 0.25 0 0 0 0.25-0.25 0.25 0.25 0 0 0-0.25-0.25z" color="#000000" style="-inkscape-stroke:none"/><path d="m12.936 5.661a0.25 0.25 0 0 0-0.25 0.25 0.25 0.25 0 0 0 0.25 0.25h2a0.25 0.25 0 0 0 0.25-0.25 0.25 0.25 0 0 0-0.25-0.25z" color="#000000" style="-inkscape-stroke:none"/><path d="m12.936 7.661a0.25 0.25 0 0 0-0.25 0.25 0.25 0.25 0 0 0 0.25 0.25h2a0.25 0.25 0 0 0 0.25-0.25 0.25 0.25 0 0 0-0.25-0.25z" color="#000000" style="-inkscape-stroke:none"/><path d="m12.936 9.661a0.25 0.25 0 0 0-0.25 0.25 0.25 0.25 0 0 0 0.25 0.25h2a0.25 0.25 0 0 0 0.25-0.25 0.25 0.25 0 0 0-0.25-0.25z" color="#000000" style="-inkscape-stroke:none"/></g></svg>
