<svg width="20" height="20" version="1.1" xmlns="http://www.w3.org/2000/svg"><path d="m15.54 15.826c-1.8189 3.1504-5.8473 4.2298-8.9977 2.4109s-4.2298-5.8473-2.4109-8.9977c0.90945-1.5752 2.3713-2.6327 3.9995-3.069 5.2952-1.4188 8.472-5.3589 8.472-5.3589s-1.898 4.444-0.4049 10.016c0.43629 1.6283 0.25142 3.423-0.65802 4.9982z" color="#000000" fill="#5a81ff" stroke-linecap="round" stroke-linejoin="round" style="-inkscape-stroke:none"/><path d="m16.634 0.314a0.50005 0.50005 0 0 0-0.41992 0.18359s-3.093 3.8176-8.2129 5.1895c-1.7511 0.4692-3.3257 1.6105-4.3027 3.3027-1.954 3.3844-0.79068 7.7257 2.5938 9.6797 3.3844 1.954 7.7276 0.79068 9.6816-2.5938 0.977-1.6922 1.1762-3.6259 0.70703-5.377-1.4485-5.406 0.38281-9.6914 0.38281-9.6914a0.50005 0.50005 0 0 0-0.42969-0.69336zm-0.95312 2.0645c-0.48262 1.6942-1.0535 4.5173 0.03516 8.5801 0.40338 1.5054 0.23252 3.159-0.60938 4.6172-1.6838 2.9164-5.3981 3.9123-8.3145 2.2285s-3.9123-5.3981-2.2285-8.3145c0.84189-1.4582 2.1918-2.4326 3.6973-2.8359 3.9222-1.051 6.1568-3.0092 7.4199-4.2754z" color="#000000" fill="#003aff" stroke-linecap="round" stroke-linejoin="round" style="-inkscape-stroke:none"/></svg>
