<svg width="18.057" height="18.057" version="1.1" xmlns="http://www.w3.org/2000/svg"><path d="m17.526 9.0285a8.4976 8.4976 0 0 1-8.4976 8.4976 8.4976 8.4976 0 0 1-8.4976-8.4976 8.4976 8.4976 0 0 1 8.4976-8.4976 8.4976 8.4976 0 0 1 8.4976 8.4976z" color="#000000" fill="#b2b2b2" stroke-linecap="round" stroke-linejoin="round" stroke-width="1.062" style="-inkscape-stroke:none"/><path d="m9.0289-0.0012702c-4.98 0-9.0287 4.0487-9.0287 9.0287 0 4.98 4.0487 9.0287 9.0287 9.0287 4.98 0 9.0287-4.0487 9.0287-9.0287 0-4.98-4.0487-9.0287-9.0287-9.0287zm0 1.0622c4.4061 0 7.9665 3.5604 7.9665 7.9665 0 4.4061-3.5604 7.9665-7.9665 7.9665-4.4061 0-7.9665-3.5604-7.9665-7.9665 0-4.4061 3.5604-7.9665 7.9665-7.9665z" color="#000000" fill="#696969" stroke-linecap="round" stroke-linejoin="round" stroke-width="1.0622" style="-inkscape-stroke:none"/><path d="m8.258 11.56q-0.0068-0.24609-0.0068-0.36914 0-0.72461 0.20508-1.251 0.15039-0.39648 0.48536-0.7998 0.24609-0.29394 0.88183-0.85449 0.64258-0.56738 0.83399-0.90234 0.1914-0.33496 0.1914-0.73144 0-0.71777-0.56054-1.2578-0.56055-0.54688-1.374-0.54688-0.78613 0-1.3125 0.49219t-0.69043 1.5381l-1.2646-0.15039q0.1709-1.4014 1.0117-2.1465 0.84766-0.74512 2.2354-0.74512 1.4697 0 2.3447 0.7998t0.875 1.9346q0 0.65625-0.30762 1.21-0.30761 0.55371-1.2031 1.3467-0.60156 0.5332-0.78613 0.78613t-0.27344 0.58106q-0.0889 0.32812-0.10254 1.0664zm-0.0752 2.4678v-1.4014h1.4014v1.4014z" fill="#5c5c5c"/></svg>
