/* XPM */
static const char * led_yellow_xpm[] = {
"15 15 65 1",
" 	c None",
".	c #351F1D",
"+	c #969E22",
"@	c #CED64A",
"#	c #B64E32",
"$	c #464A42",
"%	c #F6B022",
"&	c #C6903E",
"*	c #D9C3C1",
"=	c #7A7222",
"-	c #AE8A8A",
";	c #6A5E37",
">	c #FEE3DB",
",	c #423652",
"'	c #F1C69B",
")	c #D6E652",
"!	c #C28E82",
"~	c #BED242",
"{	c #AE5E42",
"]	c #7A4E52",
"^	c #9E7E3A",
"/	c #4A4252",
"(	c #E99215",
"_	c #EEBC8A",
":	c #D6C65A",
"<	c #7A644A",
"[	c #80321C",
"}	c #7C7C78",
"|	c #CE622A",
"1	c #DEAA42",
"2	c #8A963A",
"3	c #FEEA76",
"4	c #DE9A72",
"5	c #9E7A42",
"6	c #D2742E",
"7	c #FCDC61",
"8	c #E6CA62",
"9	c #9E521D",
"0	c #96727A",
"a	c #8A8C8A",
"b	c #FBBF3D",
"c	c #E4993A",
"d	c #924E3E",
"e	c #5F5D50",
"f	c #FDF77A",
"g	c #FEE66F",
"h	c #F6D0C6",
"i	c #E9812D",
"j	c #F99332",
"k	c #A67232",
"l	c #E6A682",
"m	c #906962",
"n	c #967652",
"o	c #6A4242",
"p	c #F6A826",
"q	c #948480",
"r	c #DEAE42",
"s	c #FEFB8E",
"t	c #F3B33A",
"u	c #B09A9E",
"v	c #D6863A",
"w	c #962E02",
"x	c #D69D3D",
"y	c #9E5C42",
"z	c #FDCD52",
"     e...e     ",
"   mo-***-om   ",
"  md!h>>>h!]0  ",
" u[{4_'''_lyou ",
" d#ivcxx1&v69d ",
" [|ivxtp%pii|w ",
" [ij%tbtbb%jiw ",
" dj%bbzz7zbpc9 ",
" 9jb77gg37zbc9 ",
" n&b7gfssggz&m ",
" qkt7fssffgr^q ",
"  <^:ffssf8^<u ",
"  };;2@)~+=;}  ",
"   aee,/$$eq   ",
"     }}}}a     "};