/* XPM */
static const char * led_green_xpm[] = {
"15 15 65 1",
" 	c None",
".	c #0A0A02",
"+	c #42822A",
"@	c #9DDE58",
"#	c #6AC22E",
"$	c #163E16",
"%	c #969296",
"&	c #2C5E26",
"*	c #BEBEC6",
"=	c #4A9322",
"-	c #D2FD88",
";	c #46573E",
">	c #729642",
",	c #9EC656",
"'	c #A3EE5A",
")	c #528642",
"!	c #4F6547",
"~	c #559B37",
"{	c #E6E6DE",
"]	c #62666A",
"^	c #223E1E",
"/	c #222622",
"(	c #859D82",
"_	c #93D054",
":	c #B2E66A",
"<	c #52A925",
"[	c #7E8487",
"}	c #3A7A2A",
"|	c #75AE42",
"1	c #BEDE6A",
"2	c #BDF478",
"3	c #9EC262",
"4	c #D6E2CE",
"5	c #C6B2C6",
"6	c #5AA622",
"7	c #7FCF40",
"8	c #424242",
"9	c #C6FA9A",
"0	c #68B334",
"a	c #5E6462",
"b	c #CBD3CB",
"c	c #C4FE7E",
"d	c #A6C687",
"e	c #577947",
"f	c #12360A",
"g	c #7A9C6A",
"h	c #B6D69E",
"i	c #1A5212",
"j	c #558835",
"k	c #5A5A5A",
"l	c #5A9642",
"m	c #BEDA9E",
"n	c #426A3A",
"o	c #7AAA6A",
"p	c #7AC040",
"q	c #5AAE36",
"r	c #253627",
"s	c #9E9E9A",
"t	c #EEFAE6",
"u	c #3B4E3A",
"v	c #67A93D",
"w	c #52703E",
"x	c #878D8A",
"y	c #6A7272",
"z	c #326A2A",
"     k/./k     ",
"   a8[*b5%ry   ",
"  y8(b4t{b(u]  ",
" s^wgdmdhdon^% ",
" u&=~v>||v~l&u ",
" f+=<00p00~=}$ ",
" f=<qp@7_7#6~f ",
" &q#__@@@@7pqi ",
" &q7@:222:@7vz ",
" ej@@'c99c'@le ",
" g+p29c9cccp)x ",
"  wj,c---2_jws ",
"  [!w>313>e![  ",
"   xauu8;u![   ",
"     [yyyx     "};
