<svg width="21.333" height="21.333" version="1.1" viewBox="0 0 20 20" xmlns="http://www.w3.org/2000/svg"><path d="M 18.241,10 A 8.241,8.241 0 0 1 10,18.241 8.241,8.241 0 0 1 1.759,10 8.241,8.241 0 0 1 10,1.759 8.241,8.241 0 0 1 18.241,10 Z" color="#000000" fill="#f47460" stroke-linecap="round" stroke-linejoin="round" stroke-width="1.5" style="-inkscape-stroke:none"/><path d="m10 1.009c-4.9567 0-8.9902 4.0335-8.9902 8.9902s4.0335 8.9922 8.9902 8.9922 8.9902-4.0355 8.9902-8.9922-4.0335-8.9902-8.9902-8.9902zm0 1.5c4.1461 0 7.4902 3.3442 7.4902 7.4902s-3.3442 7.4922-7.4902 7.4922-7.4902-3.3461-7.4902-7.4922 3.3442-7.4902 7.4902-7.4902z" color="#000000" fill="#b9392b" stroke-linecap="round" stroke-linejoin="round" style="-inkscape-stroke:none"/></svg>
