<svg width="21.333" height="21.333" version="1.1" viewBox="0 0 20 20" xmlns="http://www.w3.org/2000/svg"><path d="M 18.24,10 A 8.241,8.241 0 0 1 9.999,18.241 8.241,8.241 0 0 1 1.758,10 8.241,8.241 0 0 1 9.999,1.759 8.241,8.241 0 0 1 18.24,10 Z" color="#000000" fill="#dfe0e1" stroke-linecap="round" stroke-linejoin="round" stroke-width="1.5" style="-inkscape-stroke:none"/><path d="m10 1.009c-4.9567-2e-6 -8.9902 4.0335-8.9902 8.9902s4.0335 8.9922 8.9902 8.9922c4.9567 1e-6 8.9902-4.0355 8.9902-8.9922s-4.0335-8.9902-8.9902-8.9902zm0 1.5c4.1461-1e-6 7.4902 3.3442 7.4902 7.4902s-3.3442 7.4922-7.4902 7.4922c-4.1461 1e-6 -7.4902-3.3461-7.4902-7.4922s3.3442-7.4902 7.4902-7.4902z" color="#000000" fill="#c2c2c2" stroke-linecap="round" stroke-linejoin="round" style="-inkscape-stroke:none"/></svg>
