<svg width="21.333" height="21.333" version="1.1" viewBox="0 0 20 20" xmlns="http://www.w3.org/2000/svg"><g fill="#505050" fill-rule="evenodd" stroke-linecap="round" stroke-linejoin="round"><path d="m3.53 2.529a1 1 0 0 0-0.70703 0.29297 1 1 0 0 0 0 1.416l12.941 12.939a1 1 0 0 0 1.4141 0 1 1 0 0 0 0-1.4141l-12.941-12.941a1 1 0 0 0-0.70703-0.29297z" color="#000000" style="-inkscape-stroke:none"/><path d="m16.47 2.529a1 1 0 0 0-0.70703 0.29297l-12.941 12.941a1 1 0 0 0 0 1.4141 1 1 0 0 0 1.4141 0l12.941-12.939a1 1 0 0 0 0-1.416 1 1 0 0 0-0.70703-0.29297z" color="#000000" style="-inkscape-stroke:none"/></g></svg>
