<svg width="21.333" height="21.333" version="1.1" viewBox="0 0 20 20" xmlns="http://www.w3.org/2000/svg"><g fill="#505050" stroke-linecap="round" stroke-linejoin="round"><path d="m11.73 1.913c-3.4759 1e-6 -6.3164 2.8385-6.3164 6.3145s2.8405 6.3145 6.3164 6.3145c3.4759-1e-6 6.3145-2.8385 6.3145-6.3145s-2.8386-6.3145-6.3145-6.3145zm0 1.9961c2.3967 0 4.3164 1.9216 4.3164 4.3184s-1.9197 4.3184-4.3164 4.3184-4.3184-1.9216-4.3184-4.3184 1.9216-4.3184 4.3184-4.3184z" color="#000000" style="-inkscape-stroke:none"/><path d="m7.63 11.255a0.99985 0.99985 0 0 0-0.70703 0.29297l-4.5703 4.5703a0.99985 0.99985 0 0 0 0 1.4141 0.99985 0.99985 0 0 0 1.4141 0l4.5703-4.5703a0.99985 0.99985 0 0 0 0-1.4141 0.99985 0.99985 0 0 0-0.70703-0.29297z" color="#000000" fill-rule="evenodd" style="-inkscape-stroke:none"/></g></svg>
