<svg width="21.333" height="21.333" version="1.1" viewBox="0 0 20 20" xml:space="preserve" xmlns="http://www.w3.org/2000/svg"><g fill="#505050" stroke-linecap="round" stroke-linejoin="round"><g transform="matrix(.79055 0 0 .79055 -198.25 -46.475)" stroke-width="1.2649"><path d="m273.35 64.002a1.2649 1.2649 0 0 0-0.89453 0.37109l-12.941 12.939a1.2649 1.2649 0 0 0 0 1.7891 1.2649 1.2649 0 0 0 1.7891 0l12.941-12.941a1.2649 1.2649 0 0 0 0-1.7871 1.2649 1.2649 0 0 0-0.89453-0.37109z" color="#000000" fill-rule="evenodd" style="-inkscape-stroke:none"/><path d="m269.6 60.252a1.2649 1.2649 0 0 0-0.89453 0.37109l-12.941 12.939a1.2649 1.2649 0 0 0 0 1.7891 1.2649 1.2649 0 0 0 1.7891 0l12.941-12.941a1.2649 1.2649 0 0 0 0-1.7871 1.2649 1.2649 0 0 0-0.89453-0.37109z" color="#000000" fill-rule="evenodd" style="-inkscape-stroke:none"/><path d="m269.6 61.517 3.75 3.75" color="#000000" stroke-width="2.526" style="-inkscape-stroke:none"/><path d="m268.7 60.623a1.263 1.263 0 0 0 0 1.7871l3.75 3.75a1.263 1.263 0 0 0 1.7852 0 1.263 1.263 0 0 0 0-1.7871l-3.75-3.75a1.263 1.263 0 0 0-1.7852 0z" color="#000000" style="-inkscape-stroke:none"/></g><path d="m2.15 17.845 2.4933-5.4579 2.9646 2.9646-5.4579 2.4933" color="#000000" stroke-width="1.9969" style="-inkscape-stroke:none"/><path d="m4.47 11.406c-0.32148 0.05795-0.59429 0.26949-0.73047 0.56641 0 0-1.8778 4.1238-2.4941 5.459s0.15022 1.881 1.3242 1.3223 5.457-2.4941 5.457-2.4941c0.63246-0.2896 0.78243-1.121 0.29102-1.6133l-2.9648-2.9648c-0.23147-0.23074-0.56121-0.3336-0.88282-0.27539zm0.48828 2.7051 0.93164 0.93164-1.7148 0.7832z" color="#000000" style="-inkscape-stroke:none"/></g></svg>
