<svg width="21.333" height="21.333" version="1.1" viewBox="0 0 20 20" xml:space="preserve" xmlns="http://www.w3.org/2000/svg"><g fill="#505050" stroke-linecap="round" stroke-linejoin="round"><path d="m10 1.245c-4.8229 0-8.7539 3.931-8.7539 8.7539s3.931 8.7559 8.7539 8.7559 8.7539-3.933 8.7539-8.7559-3.931-8.7539-8.7539-8.7539zm0 1.998c3.7437 0 6.7578 3.0121 6.7578 6.7559s-3.0141 6.7578-6.7578 6.7578c-3.7437-1e-6 -6.7578-3.0141-6.7578-6.7578s3.0141-6.7559 6.7578-6.7559z" color="#000000" style="-inkscape-stroke:none"/><path d="m10 7.992a1 1 0 0 0-1 1v5.5645a1 1 0 0 0 1 1 1 1 0 0 0 1-1v-5.5645a1 1 0 0 0-1-1z" color="#000000" fill-rule="evenodd" style="-inkscape-stroke:none"/><path d="m10.98 5.719a0.97661 0.97661 0 0 1-0.97661 0.97661 0.97661 0.97661 0 0 1-0.97661-0.97661 0.97661 0.97661 0 0 1 0.97661-0.97661 0.97661 0.97661 0 0 1 0.97661 0.97661z" stroke-width="1.9969"/></g></svg>
