<svg width="21.333" height="21.333" version="1.1" viewBox="0 0 20 20" xmlns="http://www.w3.org/2000/svg"><g fill="#505050" stroke-linecap="round" stroke-linejoin="round"><path d="m10 1.222a1 1 0 0 0-1 1 1 1 0 0 0 1 1c3.7553-1e-6 6.7773 3.0221 6.7773 6.7773 0 1.8776-0.75665 3.5652-1.9844 4.793a1 1 0 0 0 0 1.4141 1 1 0 0 0 1.4141 0c1.5874-1.5874 2.5703-3.789 2.5703-6.207 0-4.8362-3.9412-8.7773-8.7773-8.7773zm-6.207 2.5703c-1.5874 1.5874-2.5703 3.789-2.5703 6.207 0 4.8362 3.9412 8.7793 8.7773 8.7793a1 1 0 0 0 1-1 1 1 0 0 0-1-1c-3.7553 2e-6 -6.7773-3.024-6.7773-6.7793 0-1.8776 0.75665-3.5633 1.9844-4.791a1 1 0 0 0 0-1.416 1 1 0 0 0-1.4141 0z" color="#000000" style="-inkscape-stroke:none"/><path d="m5.82 1.894-2.5059 0.83594a1.1816 1.1816 0 0 0-0.46094 1.9551l1.6699 1.6719a1.1816 1.1816 0 0 0 1.957-0.46289l0.83594-2.5059a1.1816 1.1816 0 0 0-1.4961-1.4941z" color="#000000" fill-rule="evenodd" style="-inkscape-stroke:none"/><path d="m14.43 13.218a1.1816 1.1816 0 0 0-0.84961 0.77539l-0.83399 2.5078a1.1816 1.1816 0 0 0 1.4941 1.4941l2.5059-0.83594a1.1816 1.1816 0 0 0 0.46289-1.9551l-1.6719-1.6719a1.1816 1.1816 0 0 0-1.1074-0.31445z" color="#000000" fill-rule="evenodd" style="-inkscape-stroke:none"/></g></svg>
