<svg width="21.333" height="21.333" version="1.1" viewBox="0 0 20 20" xml:space="preserve" xmlns="http://www.w3.org/2000/svg"><g fill="#505050" stroke-linecap="round" stroke-linejoin="round"><path d="m10 1.079a0.99854 0.99854 0 0 0-0.88281 0.53125l-8.3457 15.816a0.99854 0.99854 0 0 0 0.88282 1.4648h16.691a0.99854 0.99854 0 0 0 0.88282-1.4648l-8.3457-15.816a0.99854 0.99854 0 0 0-0.88281-0.53125zm0 3.1387 6.6894 12.678h-13.379z" color="#000000" style="-inkscape-stroke:none"/><path d="m10 7.185a1 1 0 0 0-1 1v4.1914a1 1 0 0 0 1 1 1 1 0 0 0 1-1v-4.1914a1 1 0 0 0-1-1z" color="#000000" fill-rule="evenodd" style="-inkscape-stroke:none"/><path d="m9.02 15.105a0.97661 0.97661 0 0 1 0.97661-0.97661 0.97661 0.97661 0 0 1 0.97661 0.97661 0.97661 0.97661 0 0 1-0.97661 0.97661 0.97661 0.97661 0 0 1-0.97661-0.97661z" stroke-width="1.9969"/></g></svg>
