<svg width="32" height="32" version="1.1" viewBox="0 0 30 30" xmlns="http://www.w3.org/2000/svg"><g fill="#505050"><path d="m4 3.999c-1.6447 0-3 1.3553-3 3v16c0 1.6447 1.3553 3 3 3h22c1.6447 0 3-1.3553 3-3v-16c0-1.6447-1.3553-3-3-3zm0 2h22c0.5713 0 1 0.4287 1 1v16c0 0.5713-0.4287 1-1 1h-22c-0.5713 0-1-0.4287-1-1v-16c0-0.5713 0.4287-1 1-1z" color="#000000" stroke-linecap="round" stroke-linejoin="round" style="-inkscape-stroke:none"/><g fill-rule="evenodd"><g stroke-linecap="round" stroke-linejoin="round"><path d="m16.158 6.527a0.5 0.5 0 0 0-0.38086 0.02539l-2 1a0.50005 0.50005 0 0 0-0.13086 0.09375l-1 1a0.50005 0.50005 0 0 0-0.09375 0.13086l-0.92578 1.8516-1.8496 0.92383a0.50005 0.50005 0 0 0-0.13086 0.09375l-2 2a0.50005 0.50005 0 0 0-0.09375 0.13086l-1 2a0.50005 0.50005 0 0 0-0.05273 0.22266v1.8828l-0.91016 1.8223-0.94336 0.94141a0.50005 0.50005 0 0 0-0.14648 0.35352v3a0.5 0.5 0 0 0 0.5 0.5 0.5 0.5 0 0 0 0.5-0.5v-2.793l0.85352-0.85352a0.50005 0.50005 0 0 0 0.09375-0.12891l1-2a0.50005 0.50005 0 0 0 0.05273-0.22461v-1.8809l0.91016-1.8223 1.8867-1.8848 1.9258-0.96484a0.50005 0.50005 0 0 0 0.22461-0.22266l0.96289-1.9277 0.88672-0.88477 1.9258-0.96484a0.5 0.5 0 0 0 0.22461-0.66992 0.5 0.5 0 0 0-0.28906-0.25z" color="#000000" style="-inkscape-stroke:none"/><path d="m9.387 17.255a0.5 0.5 0 0 0 0 0.70703l1.3262 1.3242a0.5 0.5 0 0 0 0.70703 0 0.5 0.5 0 0 0 0-0.70703l-1.3262-1.3242a0.5 0.5 0 0 0-0.70703 0z" color="#000000" style="-inkscape-stroke:none"/><path d="m10.713 17.255-1.3262 1.3242a0.5 0.5 0 0 0 0 0.70703 0.5 0.5 0 0 0 0.70703 0l1.3262-1.3242a0.5 0.5 0 0 0 0-0.70703 0.5 0.5 0 0 0-0.70703 0z" color="#000000" style="-inkscape-stroke:none"/><path d="m6.486 20.404a0.5 0.5 0 0 0 0 0.70703l1.3262 1.3262a0.5 0.5 0 0 0 0.70703 0 0.5 0.5 0 0 0 0-0.70898l-1.3262-1.3242a0.5 0.5 0 0 0-0.70703 0z" color="#000000" style="-inkscape-stroke:none"/><path d="m7.812 20.404-1.3262 1.3242a0.5 0.5 0 0 0 0 0.70898 0.5 0.5 0 0 0 0.70703 0l1.3262-1.3262a0.5 0.5 0 0 0 0-0.70703 0.5 0.5 0 0 0-0.70703 0z" color="#000000" style="-inkscape-stroke:none"/><path d="m10.99 13.956a0.5 0.5 0 0 0 0 0.70703l1.3242 1.3262a0.5 0.5 0 0 0 0.70703 0 0.5 0.5 0 0 0 0-0.70703l-1.3242-1.3262a0.5 0.5 0 0 0-0.70703 0z" color="#000000" style="-inkscape-stroke:none"/><path d="m12.314 13.956-1.3242 1.3262a0.5 0.5 0 0 0 0 0.70703 0.5 0.5 0 0 0 0.70703 0l1.3242-1.3262a0.5 0.5 0 0 0 0-0.70703 0.5 0.5 0 0 0-0.70703 0z" color="#000000" style="-inkscape-stroke:none"/><path d="m14.52 11.095a0.5 0.5 0 0 0 0 0.70703l1.3242 1.3242a0.5 0.5 0 0 0 0.70898 0 0.5 0.5 0 0 0 0-0.70703l-1.3262-1.3242a0.5 0.5 0 0 0-0.70703 0z" color="#000000" style="-inkscape-stroke:none"/><path d="m15.844 11.095-1.3242 1.3242a0.5 0.5 0 0 0 0 0.70703 0.5 0.5 0 0 0 0.70703 0l1.3262-1.3242a0.5 0.5 0 0 0 0-0.70703 0.5 0.5 0 0 0-0.70898 0z" color="#000000" style="-inkscape-stroke:none"/><path d="m18.184 8.654a0.5 0.5 0 0 0 0 0.70703l1.3242 1.3242a0.5 0.5 0 0 0 0.70703 0 0.5 0.5 0 0 0 0-0.70703l-1.3242-1.3242a0.5 0.5 0 0 0-0.70703 0z" color="#000000" style="-inkscape-stroke:none"/><path d="m19.508 8.654-1.3242 1.3242a0.5 0.5 0 0 0 0 0.70703 0.5 0.5 0 0 0 0.70703 0l1.3242-1.3242a0.5 0.5 0 0 0 0-0.70703 0.5 0.5 0 0 0-0.70703 0z" color="#000000" style="-inkscape-stroke:none"/></g><path d="m21.5 5.999v18h1v-18z" color="#000000" style="-inkscape-stroke:none"/></g></g></svg>
