<svg width="32" height="32" version="1.1" viewBox="0 0 30 30" xmlns="http://www.w3.org/2000/svg"><g fill="#505050" stroke-linecap="round" stroke-linejoin="round"><path d="m4 3.999c-1.6447 0-3 1.3553-3 3v16c0 1.6447 1.3553 3 3 3h22c1.6447 0 3-1.3553 3-3v-16c0-1.6447-1.3553-3-3-3zm0 2h22c0.5713 0 1 0.4287 1 1v16c0 0.5713-0.4287 1-1 1h-22c-0.5713 0-1-0.4287-1-1v-16c0-0.5713 0.4287-1 1-1z" color="#000000" style="-inkscape-stroke:none"/><g fill-rule="evenodd"><path d="m5 7.499a0.5 0.5 0 0 0-0.5 0.5 0.5 0.5 0 0 0 0.5 0.5h5a0.5 0.5 0 0 0 0.5-0.5 0.5 0.5 0 0 0-0.5-0.5z" color="#000000" style="-inkscape-stroke:none"/><path d="m5 9.499a0.5 0.5 0 0 0-0.5 0.5 0.5 0.5 0 0 0 0.5 0.5h5a0.5 0.5 0 0 0 0.5-0.5 0.5 0.5 0 0 0-0.5-0.5z" color="#000000" style="-inkscape-stroke:none"/><path d="m5 11.499a0.5 0.5 0 0 0-0.5 0.5 0.5 0.5 0 0 0 0.5 0.5h5a0.5 0.5 0 0 0 0.5-0.5 0.5 0.5 0 0 0-0.5-0.5z" color="#000000" style="-inkscape-stroke:none"/><path d="m5 13.499a0.5 0.5 0 0 0-0.5 0.5 0.5 0.5 0 0 0 0.5 0.5h5a0.5 0.5 0 0 0 0.5-0.5 0.5 0.5 0 0 0-0.5-0.5z" color="#000000" style="-inkscape-stroke:none"/><path d="m5 15.499a0.5 0.5 0 0 0-0.5 0.5 0.5 0.5 0 0 0 0.5 0.5h5a0.5 0.5 0 0 0 0.5-0.5 0.5 0.5 0 0 0-0.5-0.5z" color="#000000" style="-inkscape-stroke:none"/><path d="m5 17.499a0.5 0.5 0 0 0-0.5 0.5 0.5 0.5 0 0 0 0.5 0.5h5a0.5 0.5 0 0 0 0.5-0.5 0.5 0.5 0 0 0-0.5-0.5z" color="#000000" style="-inkscape-stroke:none"/><path d="m5 19.499a0.5 0.5 0 0 0-0.5 0.5 0.5 0.5 0 0 0 0.5 0.5h5a0.5 0.5 0 0 0 0.5-0.5 0.5 0.5 0 0 0-0.5-0.5z" color="#000000" style="-inkscape-stroke:none"/><path d="m5 21.499a0.5 0.5 0 0 0-0.5 0.5 0.5 0.5 0 0 0 0.5 0.5h5a0.5 0.5 0 0 0 0.5-0.5 0.5 0.5 0 0 0-0.5-0.5z" color="#000000" style="-inkscape-stroke:none"/><path d="m13 7.499a0.5 0.5 0 0 0-0.5 0.5 0.5 0.5 0 0 0 0.5 0.5h5a0.5 0.5 0 0 0 0.5-0.5 0.5 0.5 0 0 0-0.5-0.5z" color="#000000" style="-inkscape-stroke:none"/><path d="m13 9.499a0.5 0.5 0 0 0-0.5 0.5 0.5 0.5 0 0 0 0.5 0.5h5a0.5 0.5 0 0 0 0.5-0.5 0.5 0.5 0 0 0-0.5-0.5z" color="#000000" style="-inkscape-stroke:none"/><path d="m13 11.499a0.5 0.5 0 0 0-0.5 0.5 0.5 0.5 0 0 0 0.5 0.5h5a0.5 0.5 0 0 0 0.5-0.5 0.5 0.5 0 0 0-0.5-0.5z" color="#000000" style="-inkscape-stroke:none"/><path d="m13 13.499a0.5 0.5 0 0 0-0.5 0.5 0.5 0.5 0 0 0 0.5 0.5h5a0.5 0.5 0 0 0 0.5-0.5 0.5 0.5 0 0 0-0.5-0.5z" color="#000000" style="-inkscape-stroke:none"/><path d="m13 15.499a0.5 0.5 0 0 0-0.5 0.5 0.5 0.5 0 0 0 0.5 0.5h5a0.5 0.5 0 0 0 0.5-0.5 0.5 0.5 0 0 0-0.5-0.5z" color="#000000" style="-inkscape-stroke:none"/><path d="m13 17.499a0.5 0.5 0 0 0-0.5 0.5 0.5 0.5 0 0 0 0.5 0.5h5a0.5 0.5 0 0 0 0.5-0.5 0.5 0.5 0 0 0-0.5-0.5z" color="#000000" style="-inkscape-stroke:none"/><path d="m13 19.499a0.5 0.5 0 0 0-0.5 0.5 0.5 0.5 0 0 0 0.5 0.5h5a0.5 0.5 0 0 0 0.5-0.5 0.5 0.5 0 0 0-0.5-0.5z" color="#000000" style="-inkscape-stroke:none"/><path d="m13 21.499a0.5 0.5 0 0 0-0.5 0.5 0.5 0.5 0 0 0 0.5 0.5h5a0.5 0.5 0 0 0 0.5-0.5 0.5 0.5 0 0 0-0.5-0.5z" color="#000000" style="-inkscape-stroke:none"/><path d="m21 7.499a0.5 0.5 0 0 0-0.5 0.5 0.5 0.5 0 0 0 0.5 0.5h3a0.5 0.5 0 0 0 0.5-0.5 0.5 0.5 0 0 0-0.5-0.5z" color="#000000" style="-inkscape-stroke:none"/><path d="m21 9.499a0.5 0.5 0 0 0-0.5 0.5 0.5 0.5 0 0 0 0.5 0.5h3a0.5 0.5 0 0 0 0.5-0.5 0.5 0.5 0 0 0-0.5-0.5z" color="#000000" style="-inkscape-stroke:none"/><path d="m21 11.499a0.5 0.5 0 0 0-0.5 0.5 0.5 0.5 0 0 0 0.5 0.5h3a0.5 0.5 0 0 0 0.5-0.5 0.5 0.5 0 0 0-0.5-0.5z" color="#000000" style="-inkscape-stroke:none"/><path d="m21 13.499a0.5 0.5 0 0 0-0.5 0.5 0.5 0.5 0 0 0 0.5 0.5h3a0.5 0.5 0 0 0 0.5-0.5 0.5 0.5 0 0 0-0.5-0.5z" color="#000000" style="-inkscape-stroke:none"/><path d="m21 15.499a0.5 0.5 0 0 0-0.5 0.5 0.5 0.5 0 0 0 0.5 0.5h3a0.5 0.5 0 0 0 0.5-0.5 0.5 0.5 0 0 0-0.5-0.5z" color="#000000" style="-inkscape-stroke:none"/><path d="m21 17.499a0.5 0.5 0 0 0-0.5 0.5 0.5 0.5 0 0 0 0.5 0.5h3a0.5 0.5 0 0 0 0.5-0.5 0.5 0.5 0 0 0-0.5-0.5z" color="#000000" style="-inkscape-stroke:none"/><path d="m21 19.499a0.5 0.5 0 0 0-0.5 0.5 0.5 0.5 0 0 0 0.5 0.5h3a0.5 0.5 0 0 0 0.5-0.5 0.5 0.5 0 0 0-0.5-0.5z" color="#000000" style="-inkscape-stroke:none"/><path d="m21 21.499a0.5 0.5 0 0 0-0.5 0.5 0.5 0.5 0 0 0 0.5 0.5h3a0.5 0.5 0 0 0 0.5-0.5 0.5 0.5 0 0 0-0.5-0.5z" color="#000000" style="-inkscape-stroke:none"/></g></g></svg>
