<svg width="32" height="32" version="1.1" viewBox="0 0 30 30" xmlns="http://www.w3.org/2000/svg"><g fill="#505050" stroke-linecap="round" stroke-linejoin="round"><path d="m4.01 4.001c-1.6447 0-3 1.3553-3 3v16c0 1.6447 1.3553 3 3 3h22c1.6447 0 3-1.3553 3-3v-16c0-1.6447-1.3553-3-3-3zm0 2h22c0.5713 0 1 0.4287 1 1v16c0 0.5713-0.4287 1-1 1h-22c-0.57129 0-1-0.4287-1-1v-16c0-0.5713 0.42871-1 1-1z" color="#000000" style="-inkscape-stroke:none"/><path d="m9.9 12.411c-0.73507 0.0046-1.3527 0.42141-1.7695 0.95898s-0.66444 1.2121-0.66016 1.8887c4e-3 0.68407 0.26391 1.3636 0.69336 1.9023 0.42945 0.53872 1.0637 0.95164 1.8086 0.9375 0.74023-0.01405 1.3573-0.44851 1.7734-0.99805 0.41618-0.54954 0.66332-1.2328 0.65039-1.9141-0.0127-0.67336-0.28362-1.3346-0.71484-1.8574-0.43122-0.52284-1.0538-0.92257-1.7812-0.91797zm8e-3 1c0.34971-0.0022 0.71148 0.2025 1.002 0.55469 0.29048 0.35219 0.47869 0.83656 0.48633 1.2402 8e-3 0.4104-0.16632 0.91747-0.44922 1.291-0.28289 0.37354-0.64272 0.59489-0.99414 0.60156-0.35976 0.0068-0.71908-0.19835-1.0078-0.56055-0.28873-0.36219-0.47194-0.86635-0.47461-1.2871-3e-3 -0.41457 0.17221-0.90778 0.45117-1.2676s0.63029-0.57001 0.98633-0.57227z" color="#000000" style="-inkscape-stroke:none"/><path d="m9.82 8.779c-1.4286 0.02506-2.6111 0.98392-3.4082 2.1816-0.7971 1.1977-1.2511 2.6635-1.1719 3.957 0.0712 1.1634 0.63324 2.3674 1.4668 3.3184 0.83356 0.95096 1.9651 1.6652 3.2246 1.6797 1.2706 0.01458 2.3861-0.6863 3.1875-1.6328 0.80144-0.94652 1.3194-2.1529 1.3828-3.3164 0.0725-1.329-0.37579-2.8312-1.1836-4.0449-0.8078-1.2137-2.0251-2.1684-3.498-2.1426zm0.0176 1c1.0255-0.01799 1.9596 0.66524 2.6465 1.6973 0.68687 1.032 1.0769 2.3834 1.0195 3.4355-0.0489 0.8961-0.48536 1.9415-1.1484 2.7246-0.66307 0.78311-1.5233 1.2895-2.4141 1.2793-0.8782-0.01008-1.7831-0.54198-2.4824-1.3398-0.69936-0.79786-1.1673-1.8458-1.2207-2.7188-0.0613-1.0015 0.32551-2.3195 1.0059-3.3418 0.68036-1.0223 1.6134-1.7191 2.5938-1.7363z" color="#000000" style="-inkscape-stroke:none"/><path d="m9.45 4.318c-0.63714 0.09371-1.2536 0.35092-1.752 0.70703-2.8479 2.0351-4.6574 5.8286-4.5684 9.3125 0.10162 3.9788 3.1437 7.361 6.5547 7.4531 1.7554 0.04742 3.5872-0.81574 4.9668-2.1562 1.3796-1.3405 2.3222-3.1963 2.1367-5.1797-0.34661-3.7074-2.0032-8.0991-5.457-9.8613-0.5848-0.29837-1.2437-0.3691-1.8809-0.27539zm0.13281 1.0215c0.47391-0.07009 0.94592-0.03254 1.293 0.14453 2.9544 1.5073 4.5908 5.5861 4.916 9.0645 0.15048 1.6095-0.62601 3.1897-1.8379 4.3672s-2.8443 1.9128-4.2422 1.875c-2.7451-0.07416-5.4932-3.0025-5.582-6.4785-0.0795-3.1098 1.6262-6.6689 4.1504-8.4727 0.35282-0.25213 0.82883-0.42991 1.3027-0.5z" color="#000000" style="-inkscape-stroke:none"/><path d="m19.12 4.833a0.50015 0.50015 0 0 0-0.63086 0.32227s-0.69401 2.0945-0.84375 3.3613c-0.2873 2.4306 0.83105 4.4785 0.65625 6.5293-0.37361 4.3834-4.4129 7.4939-8.3242 7.6914-1.4915 0.0753-2.7343-0.213-3.9688-0.99609-1.2345-0.7831-2.4623-2.0859-3.8125-4.0605a0.50015 0.50015 0 0 0-0.69531-0.13086 0.50015 0.50015 0 0 0-0.13086 0.69531c1.3937 2.0382 2.7006 3.4518 4.1035 4.3418 1.403 0.88997 2.8989 1.2319 4.5527 1.1484 4.4007-0.22217 8.8501-3.6612 9.2715-8.6055 0.20706-2.4294-0.89873-4.4613-0.65821-6.4961 0.12022-1.017 0.80274-3.1699 0.80274-3.1699a0.50015 0.50015 0 0 0-0.32227-0.63086z" color="#000000" style="-inkscape-stroke:none"/><path d="m24.04 4.855a0.50015 0.50015 0 0 0-0.33984 0.17773s-0.56927 0.67778-1.1973 1.5625c-0.62799 0.88472-1.3234 1.9536-1.5957 2.8965-0.65399 2.2646 0.24209 4.5289-0.0156 6.459-0.57305 4.2917-3.1784 6.2088-6.5371 8.0039a0.50015 0.50015 0 0 0-0.20508 0.67774 0.50015 0.50015 0 0 0 0.67773 0.20508c3.4382-1.8377 6.4347-4.0961 7.0566-8.7539 0.30581-2.2903-0.54297-4.4884-0.0156-6.3145 0.19529-0.67622 0.8484-1.7465 1.4512-2.5957 0.60276-0.84918 1.1465-1.5 1.1465-1.5a0.50015 0.50015 0 0 0-0.0625-0.70312 0.50015 0.50015 0 0 0-0.36328-0.11523z" color="#000000" style="-inkscape-stroke:none"/><path d="m28.03 7.251a0.50015 0.50015 0 0 0-0.70508 0.06836s-0.52944 0.64361-1.123 1.4805c-0.5936 0.83686-1.2553 1.8473-1.543 2.7246-0.45665 1.3925-0.34089 2.8771-0.25391 4.2656 0.087 1.3885 0.14054 2.6767-0.26172 3.6719-0.40234 0.99539-1.4293 2.2921-2.3535 3.2969s-1.7363 1.7324-1.7363 1.7324a0.50015 0.50015 0 0 0-0.0391 0.70703 0.50015 0.50015 0 0 0 0.70703 0.03906s0.84598-0.75845 1.8047-1.8008c0.9587-1.0423 2.0394-2.3539 2.543-3.5996 0.51998-1.2864 0.42126-2.7163 0.33398-4.1094-0.0873-1.3931-0.16776-2.7536 0.20508-3.8906 0.21034-0.64144 0.83724-1.6521 1.4082-2.457 0.57096-0.80494 1.082-1.4238 1.082-1.4238a0.50015 0.50015 0 0 0-0.0684-0.70508z" color="#000000" style="-inkscape-stroke:none"/></g></svg>
