<svg width="32" height="32" version="1.1" viewBox="0 0 30 30" xmlns="http://www.w3.org/2000/svg"><g fill="#505050" fill-rule="evenodd" stroke-linecap="round" stroke-linejoin="round"><path d="m2.64 13.999a1 1 0 0 0-1 1 1 1 0 0 0 1 1h24.711a1 1 0 0 0 1-1 1 1 0 0 0-1-1z" color="#000000" style="-inkscape-stroke:none"/><path d="m15 1.644a1 1 0 0 0-1 1v24.713a1 1 0 0 0 1 1 1 1 0 0 0 1-1v-24.713a1 1 0 0 0-1-1z" color="#000000" style="-inkscape-stroke:none"/><path d="m14.29 1.937-4.1191 4.1191a1 1 0 0 0 0 1.4141 1 1 0 0 0 1.4141 0l3.4121-3.4121 3.4121 3.4121a1 1 0 0 0 1.4141 0 1 1 0 0 0 0-1.4141l-4.1191-4.1191a1.0001 1.0001 0 0 0-1.4141 0z" color="#000000" style="-inkscape-stroke:none"/><path d="m23.24 9.882a1 1 0 0 0-0.70703 0.29297 1 1 0 0 0 0 1.4141l3.4121 3.4102-3.4121 3.4121a1 1 0 0 0 0 1.4141 1 1 0 0 0 1.416 0l4.1172-4.1191a1.0001 1.0001 0 0 0 0-1.4141l-4.1172-4.1172a1 1 0 0 0-0.70898-0.29297z" color="#000000" style="-inkscape-stroke:none"/><path d="m10.88 22.238a1 1 0 0 0-0.70703 0.29297 1 1 0 0 0 0 1.4141l4.1191 4.1191a1.0001 1.0001 0 0 0 1.4141 0l4.1191-4.1191a1 1 0 0 0 0-1.4141 1 1 0 0 0-1.4141 0l-3.4121 3.4121-3.4121-3.4121a1 1 0 0 0-0.70703-0.29297z" color="#000000" style="-inkscape-stroke:none"/><path d="m6.76 9.882a1 1 0 0 0-0.70898 0.29297l-4.1172 4.1172a1.0001 1.0001 0 0 0 0 1.4141l4.1172 4.1191a1 1 0 0 0 1.416 0 1 1 0 0 0 0-1.4141l-3.4121-3.4121 3.4121-3.4102a1 1 0 0 0 0-1.4141 1 1 0 0 0-0.70703-0.29297z" color="#000000" style="-inkscape-stroke:none"/></g></svg>
