<svg width="32" height="32" version="1.1" viewBox="0 0 30 30" xmlns="http://www.w3.org/2000/svg"><g fill="#505050" fill-rule="evenodd" stroke-linecap="round" stroke-linejoin="round"><path d="m26.15 3.103a1 1 0 0 0-0.70703 0.29297l-7.4316 7.4316a1 1 0 0 0 0 1.4141 1 1 0 0 0 1.4141 0l7.4316-7.4316a1 1 0 0 0 0-1.4141 1 1 0 0 0-0.70704-0.29297z" color="#000000" style="-inkscape-stroke:none"/><path d="m20.94 3.103a1 1 0 0 0-1 1 1 1 0 0 0 1 1h4.2031l-2e-3 4.2012a1 1 0 0 0 1 1 1 1 0 0 0 1-1l2e-3 -5.2012a1.0001 1.0001 0 0 0-1-1z" color="#000000" style="-inkscape-stroke:none"/><path d="m18.71 17.966a1 1 0 0 0-0.70703 0.29297 1 1 0 0 0 0 1.4141l7.4316 7.4316a1 1 0 0 0 1.4141 0 1 1 0 0 0 0-1.4141l-7.4316-7.4316a1 1 0 0 0-0.70703-0.29297z" color="#000000" style="-inkscape-stroke:none"/><path d="m26.14 20.197a1 1 0 0 0-1 1l2e-3 4.2012h-4.2031a1 1 0 0 0-1 1 1 1 0 0 0 1 1h5.2031a1.0001 1.0001 0 0 0 1-1.002l-2e-3 -5.1992a1 1 0 0 0-1-1z" color="#000000" style="-inkscape-stroke:none"/><path d="m3.85 3.103a1 1 0 0 0-0.70704 0.29297 1 1 0 0 0 0 1.4141l7.4316 7.4316a1 1 0 0 0 1.4141 0 1 1 0 0 0 0-1.4141l-7.4316-7.4316a1 1 0 0 0-0.70703-0.29297z" color="#000000" style="-inkscape-stroke:none"/><path d="m3.85 3.103a1.0001 1.0001 0 0 0-1 1l2e-3 5.2012a1 1 0 0 0 1 1 1 1 0 0 0 1-1l-2e-3 -4.2012h4.2031a1 1 0 0 0 1-1 1 1 0 0 0-1-1z" color="#000000" style="-inkscape-stroke:none"/><path d="m11.29 17.966a1 1 0 0 0-0.70704 0.29297l-7.4316 7.4316a1 1 0 0 0 0 1.4141 1 1 0 0 0 1.4141 0l7.4316-7.4316a1 1 0 0 0 0-1.4141 1 1 0 0 0-0.70703-0.29297z" color="#000000" style="-inkscape-stroke:none"/><path d="m3.86 20.197a1 1 0 0 0-1 1l-2e-3 5.1992a1.0001 1.0001 0 0 0 1 1.002h5.2031a1 1 0 0 0 1-1 1 1 0 0 0-1-1h-4.2031l2e-3 -4.2012a1 1 0 0 0-1-1z" color="#000000" style="-inkscape-stroke:none"/></g></svg>
