<svg width="32" height="32" version="1.1" viewBox="0 0 30 30" xmlns="http://www.w3.org/2000/svg"><g fill="#505050" stroke-linecap="round" stroke-linejoin="round"><path d="m20.66 18.329a1.8687 1.8687 0 0 0-2.6426 0.01367 1.8687 1.8687 0 0 0 0.0137 2.6426l6.7441 6.6719a1.8687 1.8687 0 0 0 2.6426-0.01563 1.8687 1.8687 0 0 0-0.0156-2.6426z" color="#000000" fill-rule="evenodd" style="-inkscape-stroke:none"/><path d="m12.69 2.962c-5.3697 3e-6 -9.7441 4.3744-9.7441 9.7441s4.3744 9.7441 9.7441 9.7441c5.3698 3e-6 9.7441-4.3744 9.7441-9.7441 0-5.3698-4.3744-9.7441-9.7441-9.7441zm0 2c4.2889-2e-6 7.7441 3.4553 7.7441 7.7441 0 4.2889-3.4553 7.7441-7.7441 7.7441-4.2889-3e-6 -7.7441-3.4553-7.7441-7.7441 0-4.2889 3.4553-7.7441 7.7441-7.7441z" color="#000000" style="-inkscape-stroke:none"/><path d="m7.97 11.847a1 1 0 0 0-1 1 1 1 0 0 0 1 1h9.3438a1 1 0 0 0 1-1 1 1 0 0 0-1-1z" color="#000000" fill-rule="evenodd" style="-inkscape-stroke:none"/></g></svg>
