<svg width="32" height="32" version="1.1" viewBox="0 0 30 30" xmlns="http://www.w3.org/2000/svg"><g fill="#505050" stroke-linecap="round" stroke-linejoin="round"><path d="m20.71 18.398a1.8557 1.8557 0 0 0-2.625 0.01367 1.8557 1.8557 0 0 0 0.0137 2.623l6.6973 6.627a1.8557 1.8557 0 0 0 2.625-0.01563 1.8557 1.8557 0 0 0-0.0156-2.623z" color="#000000" fill-rule="evenodd" style="-inkscape-stroke:none"/><path d="m12.8 3.13c-5.3362 1e-6 -9.6836 4.3474-9.6836 9.6836s4.3474 9.6836 9.6836 9.6836c5.3362-1e-6 9.6836-4.3474 9.6836-9.6836s-4.3474-9.6836-9.6836-9.6836zm0 2c4.2553 1e-6 7.6836 3.4283 7.6836 7.6836s-3.4283 7.6836-7.6836 7.6836c-4.2553-1e-6 -7.6836-3.4283-7.6836-7.6836s3.4283-7.6836 7.6836-7.6836z" color="#000000" style="-inkscape-stroke:none"/><path d="m8.11 11.954a1 1 0 0 0-1 1 1 1 0 0 0 1 1h9.2793a1 1 0 0 0 1-1 1 1 0 0 0-1-1z" color="#000000" fill-rule="evenodd" style="-inkscape-stroke:none"/><path d="m12.75 7.316a1 1 0 0 0-1 1v9.2773a1 1 0 0 0 1 1 1 1 0 0 0 1-1v-9.2773a1 1 0 0 0-1-1z" color="#000000" fill-rule="evenodd" style="-inkscape-stroke:none"/></g></svg>
