<svg width="32" height="32" version="1.1" viewBox="0 0 30 30" xmlns="http://www.w3.org/2000/svg"><g fill="#505050" stroke-linecap="round" stroke-linejoin="round"><path d="m3.25 2.999c-1.108 0-2 0.892-2 2v19s2.6482-13.962 4.7313-13.965l19.622-0.03464v-2c0-1.108-0.892-2-2-2h-12.354v-1c0-1.108-0.892-2-2-2z" color="#000000" style="-inkscape-stroke:none"/><path d="m3.25 2.499c-1.3764 0-2.5 1.1236-2.5 2.5v19a0.50005 0.50005 0 0 0 0.99219 0.09375s0.65966-3.4788 1.5762-6.9473c0.45826-1.7342 0.98281-3.4661 1.5078-4.7363 0.2625-0.6351 0.52815-1.156 0.76172-1.4844s0.41331-0.39066 0.39453-0.39062l19.621-0.03516a0.50005 0.50005 0 0 0 0.5-0.5v-2c0-1.3763-1.1236-2.5-2.5-2.5h-11.854v-0.5c0-1.3764-1.1236-2.5-2.5-2.5zm0 1h6c0.83965 0 1.5 0.66035 1.5 1.5v1a0.50005 0.50005 0 0 0 0.5 0.5h12.354c0.83965 0 1.5 0.66035 1.5 1.5v1.5l-19.123 0.03516c-0.53956 9.53e-4 -0.89706 0.37472-1.207 0.81055-0.30997 0.43583-0.59434 1.0073-0.87305 1.6816-0.55742 1.3486-1.0846 3.1066-1.5488 4.8633-0.35046 1.3263-0.34796 1.5131-0.60156 2.6484v-14.539c0-0.83965 0.66035-1.5 1.5-1.5z" color="#000000" style="-inkscape-stroke:none"/><path d="m7.025 9.13c-0.83409 1e-6 -1.5805 0.40114-2.0547 0.93555s-0.73798 1.1711-0.91016 1.8027l-3.2422 11.893c-0.25542 0.93696 0.16723 1.853 0.76172 2.4004 0.59449 0.54736 1.369 0.86328 2.2031 0.86328h19.541c0.83409 0 1.5786-0.40114 2.0527-0.93555s0.73993-1.1692 0.91211-1.8008l3.2422-11.895c0.25542-0.93696-0.16918-1.853-0.76367-2.4004-0.59449-0.54736-1.3671-0.86328-2.2012-0.86328zm0 2h19.541c0.27391 0 0.6463 0.15054 0.84766 0.33594s0.22349 0.27031 0.1875 0.40234l-3.2422 11.893c-0.11923 0.43738-0.30253 0.80165-0.47852 1s-0.28273 0.26367-0.55664 0.26367h-19.541c-0.27391 0-0.6463-0.14859-0.84766-0.33398s-0.22349-0.27031-0.1875-0.40234l3.2422-11.895c0.11923-0.43738 0.30057-0.80165 0.47656-1s0.28468-0.26367 0.55859-0.26367z" color="#000000" style="-inkscape-stroke:none"/></g></svg>
