<svg width="32" height="32" version="1.1" viewBox="0 0 30 30" xmlns="http://www.w3.org/2000/svg"><g fill="#505050" stroke-linecap="round" stroke-linejoin="round"><g fill-rule="evenodd"><path d="m5 2.999a2 2 0 0 0-2 2v0.70508a2 2 0 0 0 2 2 2 2 0 0 0 2-2v-0.70508a2 2 0 0 0-2-2z" color="#000000" style="-inkscape-stroke:none"/><path d="m15 22.394a2 2 0 0 0-2 2v0.60547a2 2 0 0 0 2 2 2 2 0 0 0 2-2v-0.60547a2 2 0 0 0-2-2z" color="#000000" style="-inkscape-stroke:none"/><path d="m25 17.013a2 2 0 0 0-2 2v5.9863a2 2 0 0 0 2 2 2 2 0 0 0 2-2v-5.9863a2 2 0 0 0-2-2z" color="#000000" style="-inkscape-stroke:none"/></g><path d="m5 5.714c-2.3554 0-4.2871 1.9297-4.2871 4.2852 0 2.3554 1.9317 4.2871 4.2871 4.2871s4.2871-1.9317 4.2871-4.2871-1.9317-4.2852-4.2871-4.2852zm0 2c1.2746 0 2.2871 1.0106 2.2871 2.2852s-1.0126 2.2871-2.2871 2.2871-2.2871-1.0126-2.2871-2.2871c0-1.2746 1.0126-2.2852 2.2871-2.2852z" color="#000000" style="-inkscape-stroke:none"/><path d="m14.998 15.759c-2.3554 0-4.2852 1.9297-4.2852 4.2852 0 2.3554 1.9297 4.2871 4.2852 4.2871 2.3554 0 4.2871-1.9317 4.2871-4.2871 1e-6 -2.3554-1.9317-4.2852-4.2871-4.2852zm0 2c1.2746 0 2.2871 1.0106 2.2871 2.2852s-1.0126 2.2871-2.2871 2.2871c-1.2746 0-2.2852-1.0126-2.2852-2.2871-1e-6 -1.2746 1.0106-2.2852 2.2852-2.2852z" color="#000000" style="-inkscape-stroke:none"/><path d="m25.01 10.406c-2.3554 0-4.2871 1.9317-4.2871 4.2871s1.9317 4.2852 4.2871 4.2852 4.2852-1.9297 4.2852-4.2852c0-2.3554-1.9297-4.2871-4.2852-4.2871zm0 2c1.2746 0 2.2852 1.0126 2.2852 2.2871 0 1.2746-1.0106 2.2852-2.2852 2.2852s-2.2871-1.0106-2.2871-2.2852 1.0126-2.2871 2.2871-2.2871z" color="#000000" style="-inkscape-stroke:none"/><g fill-rule="evenodd"><path d="m25 2.999a2 2 0 0 0-2 2v5.3691a2 2 0 0 0 2 2 2 2 0 0 0 2-2v-5.3691a2 2 0 0 0-2-2z" color="#000000" style="-inkscape-stroke:none"/><path d="m15 2.999a2 2 0 0 0-2 2v10.74a2 2 0 0 0 2 2 2 2 0 0 0 2-2v-10.74a2 2 0 0 0-2-2z" color="#000000" style="-inkscape-stroke:none"/><path d="m5 12.283a2 2 0 0 0-2 2v10.717a2 2 0 0 0 2 2 2 2 0 0 0 2-2v-10.717a2 2 0 0 0-2-2z" color="#000000" style="-inkscape-stroke:none"/></g></g></svg>
