<svg width="32" height="32" version="1.1" viewBox="0 0 30 30" xmlns="http://www.w3.org/2000/svg"><g fill="#505050" stroke-linecap="round" stroke-linejoin="round"><path d="m10.702 3.1862a1.0001 1.0001 0 0 0-0.70797 0.29122l-6.2621 6.2504a1.0001 1.0001 0 0 0-0.29367 0.70661l-0.00934 8.8483a1.0001 1.0001 0 0 0 0.29264 0.70778l6.2506 6.2636a1.0001 1.0001 0 0 0 0.70661 0.29368l8.8481 0.0079a1.0001 1.0001 0 0 0 0.70797-0.29122l6.2621-6.2504a1.0001 1.0001 0 0 0 0.29368-0.70661l0.0093-8.8483a1.0001 1.0001 0 0 0-0.2926-0.70779l-6.2506-6.2636a1.0001 1.0001 0 0 0-0.70661-0.29367zm0.41245 1.9999 8.0201 0.00803 5.6641 5.6762-8e-3 8.0201-5.6774 5.6656-8.0186-0.0082-5.6641-5.6762 0.00803-8.0201z" color="#000000" stroke-width=".73117" style="-inkscape-stroke:none"/><path d="m9.8979 8.712a1 1 0 0 0-0.70618 0.2932 1 1 0 0 0 0 1.4144l10.572 10.572a1 1 0 0 0 1.4123 0 1 1 0 0 0 0-1.4144l-10.572-10.572a1 1 0 0 0-0.70618-0.2932z" color="#000000" fill-rule="evenodd" stroke-width="2" style="-inkscape-stroke:none"/><path d="m20.47 8.712a1 1 0 0 0-0.70618 0.2932l-10.572 10.572a1 1 0 0 0 0 1.4144 1 1 0 0 0 1.4123 0l10.572-10.572a1 1 0 0 0 0-1.4144 1 1 0 0 0-0.70618-0.2932z" color="#000000" fill-rule="evenodd" stroke-width="2" style="-inkscape-stroke:none"/></g></svg>
